<mxfile host="app.diagrams.net" modified="2024-04-23T15:59:45.647Z" agent="Mozilla/5.0 (Windows NT 10.0; Win64; x64; rv:123.0) Gecko/20100101 Firefox/123.0" version="24.2.8" etag="jsKRQpPu5KTcKNlP5DtJ" type="github">
  <diagram name="Seite-1" id="VKQOc1bhrzCOc8ad0ZN5">
    <mxGraphModel>
      <root>
        <mxCell id="0" />
        <mxCell id="1" parent="0" />
      </root>
    </mxGraphModel>
  </diagram>
</mxfile>
